<svg height="512" viewBox="0 0 59 58" width="512" xmlns="http://www.w3.org/2000/svg"><g id="092---Traveling" fill="none" transform="translate(0 -1)"><path id="Shape" d="m33.49 42.04c-.22 2.65-2.12 4.79-1.81 7.53.2890149 1.2991481.4100044 2.630032.36 3.96-.1340857.9127675-.3448309 1.8126163-.63 2.69-7.5285908-4.7330932-10.4658742-14.2590731-6.91-22.41.2629964 2.0863504 1.5655903 3.8971818 3.46 4.81 1.3.54 2.82.56 4.14 1.14.9302452.3526647 1.5026331 1.2915455 1.39 2.28z" fill="#71c285"/><path id="Shape" d="m57.58 48.01c-1.312757 3.1032579-3.4715637 5.774911-6.23 7.71-1.3167959-.4433606-2.6842538-.7188681-4.07-.82-1.8503166-.1717321-3.7160996-.0536446-5.53.35-2.0787844.5509338-3.9867074 1.6131828-5.55 3.09-1.6926709-.4660395-3.3068889-1.1804742-4.79-2.12.2851691-.8773837.4959143-1.7772325.63-2.69.0500044-1.329968-.0709851-2.6608519-.36-3.96-.31-2.74 1.59-4.88 1.81-7.53.1126331-.9884545-.4597548-1.9273353-1.39-2.28-1.32-.58-2.84-.6-4.14-1.14-1.8944097-.9128182-3.1970036-2.7236496-3.46-4.81.7631297-1.7598726 1.8066822-3.3843023 3.09-4.81.8829207-.9964805 1.8797388-1.8858974 2.97-2.65l9.7-3.33c.25-.02.49-.02.74-.02.4 0 .79.01 1.18.04 2.3702144.1517036 4.6859063.7773825 6.81 1.84l-.02.02c-1.4972294 1.7551973-3.4032249 3.1151509-5.55 3.96-.9671079.4253737-1.8202161 1.0729137-2.49 1.89l-.35 4.19c.8699996 1.0491726 2.0800946 1.7603688 3.42 2.01 2.44.54 4.63 1.91 4.64 4.65-.0504366 1.1543751-.3008179 2.2912415-.74 3.36-.6129458 1.2599531-1.0181732 2.6107112-1.2 4-.04 1.82 1.48 2.76 3.2 2.54 1.1203404-.1804444 2.1823829-.6223912 3.1-1.29.110387-.0641597.2172107-.1342628.32-.21 1.2819133-.9258505 2.7272872-1.6010369 4.26-1.99z" fill="#3b97d3"/><path id="Shape" d="m51.35 55.72c-4.3994406 3.1062143-9.9629062 4.068345-15.15 2.62 1.5632926-1.4768172 3.4712156-2.5390662 5.55-3.09 1.8139004-.4036446 3.6796834-.5217321 5.53-.35 1.3857462.1011319 2.7532041.3766394 4.07.82z" fill="#71c285"/><path id="Shape" d="m59 41c.0046177 2.4085546-.4784174 4.7931151-1.42 7.01-1.5327128.3889631-2.9780867 1.0641495-4.26 1.99-.1027893.0757372-.209613.1458403-.32.21-.9176171.6676088-1.9796596 1.1095556-3.1 1.29-1.72.22-3.24-.72-3.2-2.54.1818268-1.3892888.5870542-2.7400469 1.2-4 .4391821-1.0687585.6895634-2.2056249.74-3.36-.01-2.74-2.2-4.11-4.64-4.65-1.3399054-.2496312-2.5500004-.9608274-3.42-2.01l.35-4.19c.6697839-.8170863 1.5228921-1.4646263 2.49-1.89 2.1467751-.8448491 4.0527706-2.2048027 5.55-3.96l.02-.02c6.1328714 3.0301105 10.0134849 9.2794101 10.01 16.12z" fill="#71c285"/><path id="Shape" d="m31.863 24.515c-.9575154.9938568-1.6246339 2.2309137-1.929 3.577v.006c-.1267825.5020002.0198769 1.0336803.3860928 1.3996912.3662159.3660108.897978.5123724 1.3999072.3853088v.006c.8297329-.1851214 1.6211085-.5126338 2.339-.968l5.062-4.774 2.65-2.649c.6675185-.63819.6956405-1.6952197.063-2.368l-1.152-1.151c-.6722325-.6330769-1.7293953-.6049395-2.367.063l-.68.68z" fill="#c03a2b"/><path id="Shape" d="m27.278 8.355.68-.68c.6679395-.6376047.6960769-1.69476749.063-2.367l-1.151-1.152c-.6727803-.63264047-1.72981-.60451848-2.368.063l-2.649 2.65-4.774 5.062c-.4553662.7178915-.7828786 1.5092671-.968 2.339l.006.005c-.1267538.5015005.0194043 1.0327134.3848625 1.3987865s.8964247.513124 1.3981375.3872135h.006c1.3460863-.3043661 2.5831432-.9714846 3.577-1.929z" fill="#e64c3c"/><path id="Shape" d="m44.65 1.35-30.45 30.46-.58-.58-3.45-3.46c-.1535301-.1519504-.23991653-.3589898-.23991653-.575s.08638643-.4230496.23991653-.575l.82-.83c.2062981-.1999858.501181-.2793774.78-.21l3.62.9c.32299.0802996.6625268-.0420915.86-.31l3.07-4.3c1.5710479-2.2086736 3.3273982-4.2794942 5.25-6.19v-.01l-15.12-7.55c-.23442253-.11841533-.39783592-.34207066-.43940665-.60139283s.04374459-.52285004.22940665-.70860717l.32-.31c1.443873-1.4505127 3.5564495-2.01208368 5.53-1.47l15.81 4.31c.11-.11.84-.83 4.61-4.61 4.15-4.15 7.56-3.87 8.76-3.59.1420914.03747941.2726606.10963602.38.21z" fill="#bdc3c7"/><path id="Shape" d="m36.66 15.1 4.31 15.81c.5420837 1.9735505-.0194873 4.086127-1.47 5.53l-.31.32c-.1857571.1856621-.449285.2709774-.7086072.2294066-.2593221-.0415707-.4829775-.2049841-.6013928-.4394066l-7.55-15.12h-.01c-1.9105058 1.9226018-3.9813264 3.6789521-6.19 5.25l-4.3 3.07c-.2679085.1974732-.3902996.53701-.31.86l.9 3.62c.0693774.278819-.0100142.5737019-.21.78l-.83.82c-.1519504.1535301-.3589898.2399165-.575.2399165s-.4230496-.0863864-.575-.2399165l-3.46-3.45-.57-.57 30.45-30.46c.100364.10733945.1725206.23790855.21.38.28 1.2.56 4.61-3.59 8.76-3.78 3.77-4.5 4.5-4.61 4.61z" fill="#95a5a5"/><g fill="#84b5cb"><path id="Shape" d="m13 58c-.1416872.0001146-.2817813-.0298812-.411-.088-6.632-2.986-10.613-7.54-11.832-13.534-1.737-8.546 2.726-18.034 7.919-23.647.37694694-.3960091 1.00205414-.415882 1.4033937-.0446156.4013395.3712665.4301168.9960271.0646063 1.4026156-4.69 5.069-9.015 14.081-7.427 21.89 1.083 5.329 4.683 9.403 10.694 12.109.4301.1934456.6665885.6610893.5674781 1.1221579-.0991105.4610687-.5068776.7902243-.9784781.7898421z"/><path id="Shape" d="m16 55c-.1971916-.000153-.3899366-.0586028-.554-.168-4.67-3.113-7.491-7.343-7.944-11.909-.38904111-3.1477862.63290448-6.3065936 2.792-8.63.3923789-.3789722 1.0160848-.3735524 1.4018186.0121814s.3911536 1.0094397.0121814 1.4018186c-1.73636528 1.8990746-2.54681453 4.4672657-2.215 7.019.392 3.959 2.9 7.667 7.063 10.442.3668102.2445875.5301634.700538.4021268 1.122414-.1280366.4218761-.5172499.7101263-.9581268.709586z"/><path id="Shape" d="m19 52c-.2651948-.0000566-.5195073-.1054506-.707-.293-4.311-4.311-4.515-9.9-2-12.414.3923789-.3789722 1.0160848-.3735524 1.4018186.0121814s.3911536 1.0094397.0121814 1.4018186c-.8784564 1.1027691-1.2309828 2.5344285-.965 3.919.3378824 2.1637792 1.3800581 4.155688 2.965 5.667.2859079.2859943.3714219.7160366.216678 1.0896546-.1547439.3736179-.5192821.6172591-.923678.6173454z"/><circle id="Oval" cx="12" cy="19" r="1"/></g></g></svg>